<svg xmlns="http://www.w3.org/2000/svg" xmlns:xlink="http://www.w3.org/1999/xlink" width="24" height="24" viewBox="0 0 24 24">
  <defs>
    <style>
      .cls-1 {
        fill: #fff;
      }

      .cls-10, .cls-2, .cls-3, .cls-4, .cls-5, .cls-7, .cls-8, .cls-9 {
        fill: none;
      }

      .cls-2 {
        stroke: #fb04cd;
      }

      .cls-2, .cls-3, .cls-4, .cls-5 {
        stroke-width: 20px;
      }

      .cls-3 {
        stroke: #06edff;
      }

      .cls-4 {
        stroke: #ff3a6e;
      }

      .cls-5 {
        stroke: #ffcf00;
      }

      .cls-6 {
        stroke: none;
      }

      .cls-7 {
        clip-path: url(#clip);
      }

      .cls-8 {
        clip-path: url(#clip-2);
      }

      .cls-9 {
        clip-path: url(#clip-3);
      }

      .cls-10 {
        clip-path: url(#clip-4);
      }
    </style>
    <clipPath id="clip">
      <use xlink:href="#fill"/>
    </clipPath>
    <clipPath id="clip-2">
      <use xlink:href="#fill-2"/>
    </clipPath>
    <clipPath id="clip-3">
      <use xlink:href="#fill-3"/>
    </clipPath>
    <clipPath id="clip-4">
      <use xlink:href="#fill-4"/>
    </clipPath>
  </defs>
  <g id="组_66168" data-name="组 66168" transform="translate(-220 -362.848)">
    <g id="组_66097" data-name="组 66097" transform="translate(220 362.848)">
      <path id="路径_395" data-name="路径 395" class="cls-1" d="M13.049,24a12,12,0,1,1,12-12A12,12,0,0,1,13.049,24Zm-.308-12.308" transform="translate(-1.049)"/>
    </g>
    <g id="组_66096" data-name="组 66096" transform="translate(224.875 367.723)">
      <g id="组_49641" data-name="组 49641">
        <g id="矩形_18355" data-name="矩形 18355" class="cls-2" transform="translate(0 1.377) rotate(-45)">
          <rect id="fill" class="cls-6" width="1.948" height="7.305" rx="0.974"/>
          <path class="cls-7" d="M0,-2.6948747634887695h1.9480262994766235M10,0v7.3051252365112305M1.9480262994766235,10h-1.9480262994766235M-8.051973700523376,7.3051252365112305v-7.3051252365112305"/>
        </g>
        <g id="矩形_18356" data-name="矩形 18356" class="cls-3" transform="translate(12.858 0.159) rotate(45)">
          <rect id="fill-2" class="cls-6" width="1.948" height="7.305" rx="0.974"/>
          <path class="cls-8" d="M0,-2.6948719024658203h1.9480410814285278M10,0v7.30512809753418M1.9480410814285278,10h-1.9480410814285278M-8.051958918571472,7.30512809753418v-7.30512809753418"/>
        </g>
        <g id="矩形_18357" data-name="矩形 18357" class="cls-4" transform="translate(7.693 9.07) rotate(-45)">
          <rect id="fill-3" class="cls-6" width="1.948" height="7.305" rx="0.974"/>
          <path class="cls-9" d="M0,-2.6948747634887695h1.9480262994766235M10,0v7.3051252365112305M1.9480262994766235,10h-1.9480262994766235M-8.051973700523376,7.3051252365112305v-7.3051252365112305"/>
        </g>
        <g id="矩形_18358" data-name="矩形 18358" class="cls-5" transform="translate(5.166 7.693) rotate(45)">
          <rect id="fill-4" class="cls-6" width="1.948" height="7.305" rx="0.974"/>
          <path class="cls-10" d="M0,-2.6948719024658203h1.9480410814285278M10,0v7.30512809753418M1.9480410814285278,10h-1.9480410814285278M-8.051958918571472,7.30512809753418v-7.30512809753418"/>
        </g>
      </g>
    </g>
  </g>
</svg>
