<svg xmlns="http://www.w3.org/2000/svg" width="27" height="22.989" viewBox="0 0 27 22.989">
  <defs>
    <style>
      .cls-1 {
        fill: #fff;
      }
    </style>
  </defs>
  <path id="路径_23202" data-name="路径 23202" class="cls-1" d="M84.4,170.209h24.069a1.389,1.389,0,1,0,0-2.777H84.4a1.383,1.383,0,0,0-1.389,1.389C82.861,169.592,83.632,170.209,84.4,170.209Zm0-10.029H98.752a1.389,1.389,0,0,0,0-2.777h-14.5a1.383,1.383,0,0,0-1.389,1.389A1.522,1.522,0,0,0,84.4,160.18Zm20.057,3.24,5.091-4.32a.469.469,0,0,0,0-.617l-4.937-4.32a.214.214,0,0,0-.309,0v9.1a.332.332,0,0,0,.309.309l-.154-.154ZM84.4,150h24.069a1.389,1.389,0,1,0,0-2.777H84.4a1.383,1.383,0,0,0-1.389,1.389C82.861,149.38,83.632,150,84.4,150Z" transform="translate(-82.861 -147.22)"/>
</svg>
