<svg xmlns="http://www.w3.org/2000/svg" width="12.908" height="12.908" viewBox="0 0 12.908 12.908">
  <defs>
    <style>
      .cls-1 {
        fill: #a8a2ce;
      }
    </style>
  </defs>
  <path id="路径_52044" data-name="路径 52044" class="cls-1" d="M6.454,12.908a6.454,6.454,0,1,1,6.454-6.454A6.454,6.454,0,0,1,6.454,12.908Zm0-1.076A5.378,5.378,0,1,0,1.076,6.454a5.378,5.378,0,0,0,5.378,5.378ZM5.916,5.916a.538.538,0,1,1,1.076,0V9.681a.538.538,0,1,1-1.076,0ZM6.4,4.2a.753.753,0,1,1,.753-.753A.753.753,0,0,1,6.4,4.2Z"/>
</svg>
